<svg xmlns="http://www.w3.org/2000/svg" xmlns:xlink="http://www.w3.org/1999/xlink" width="37.622" height="36.064" viewBox="0 0 37.622 36.064">
  <defs>
    <linearGradient id="linear-gradient" y1="0.5" x2="1" y2="0.5" gradientUnits="objectBoundingBox">
      <stop offset="0.117" stop-color="#2b388f"/>
      <stop offset="1" stop-color="#00adee"/>
    </linearGradient>
    <linearGradient id="linear-gradient-2" x1="0.5" y1="-1.667" x2="0.5" y2="12.905" gradientUnits="objectBoundingBox">
      <stop offset="0.117" stop-color="#5dc9e5"/>
      <stop offset="1" stop-color="#ca4a9a"/>
    </linearGradient>
    <linearGradient id="linear-gradient-3" x1="0.5" y1="-1.666" x2="0.5" y2="12.903" xlink:href="#linear-gradient-2"/>
    <linearGradient id="linear-gradient-4" x1="0.5" y1="-1.666" x2="0.5" y2="12.903" xlink:href="#linear-gradient-2"/>
  </defs>
  <g id="liyu-01" transform="translate(-192.3 -205.07)">
    <path id="Path_287004" data-name="Path 287004" d="M218.178,247.436h-9.351a1.544,1.544,0,0,0-1.544,1.544v11.449a8.709,8.709,0,0,0-.06,1.445v1.762a.5.5,0,1,0,.692.065v-2.483h.692v1.059a.5.5,0,1,0,.693.048v-1.107h.692v2.438a.5.5,0,1,0,.692.02v-2.458h.692v1.518a.5.5,0,1,0,.769.416.491.491,0,0,0-.076-.264v-1.671h.692v2.672a.5.5,0,1,0,.692-.023v-2.649h.737a.55.55,0,0,1-.044.04V263a.5.5,0,1,0,.8.4.49.49,0,0,0-.105-.3v-1.214h-.023a8.14,8.14,0,0,0,.014-1.016V258.7a1.544,1.544,0,0,1,1.541-1.544h.621a1.544,1.544,0,0,1,1.546,1.545l-.008,9.755a4.74,4.74,0,0,1-4.74,4.736h-4.42a4.9,4.9,0,0,1-4.9-4.9l-.015-9.169h-.022v-3.269a1,1,0,0,0-1-1,.82.82,0,0,1-.819-.819v-5.358a.718.718,0,1,0-.181,0v5.358a1,1,0,0,0,1,1,.82.82,0,0,1,.819.819v3.269h-1.7v-3.269a1,1,0,0,0-1-1,.82.82,0,0,1-.819-.819v-5.358a.718.718,0,1,0-.181,0v5.358a1,1,0,0,0,1,1,.82.82,0,0,1,.819.819v3.269h-1.978v-3.269a1,1,0,0,0-1-1,.82.82,0,0,1-.819-.819v-5.358a.718.718,0,1,0-.181,0v5.358a1,1,0,0,0,1,1,.82.82,0,0,1,.819.819v3.269h-1.639v-3.269a1,1,0,0,0-1-1,.82.82,0,0,1-.819-.819v-5.358a.718.718,0,1,0-.181,0v5.358a1,1,0,0,0,1,1,.82.82,0,0,1,.819.819v3.269h-1.639v-3.269a1,1,0,0,0-1-1,.82.82,0,0,1-.819-.819v-5.358a.718.718,0,1,0-.181,0v5.358a1,1,0,0,0,1,1,.82.82,0,0,1,.819.819v3.269h-1.639v-3.269a1,1,0,0,0-1-1,.82.82,0,0,1-.819-.819v-5.358a.718.718,0,1,0-.181,0v5.358a1,1,0,0,0,1,1,.82.82,0,0,1,.819.819v10.917h.006v3.264a10.7,10.7,0,0,0,10.7,10.7h14.985a7.8,7.8,0,0,0,7.8-7.8V257.5A10.062,10.062,0,0,0,218.178,247.436ZM208.93,262.9a.24.24,0,1,1,.24-.24A.24.24,0,0,1,208.93,262.9Zm1.4,1.367a.24.24,0,1,1,.24-.24A.24.24,0,0,1,210.328,264.262Zm1.321-.87a.24.24,0,1,1,.24-.24A.24.24,0,0,1,211.649,263.392Zm1.472,1.082a.24.24,0,1,1,.24-.24A.24.24,0,0,1,213.121,264.474Zm-5.584-.212a.24.24,0,1,1,.24-.24A.24.24,0,0,1,207.537,264.262Zm6.911-.63a.24.24,0,1,1,.24-.24A.24.24,0,0,1,214.447,263.632Zm-12.461-15.663a.538.538,0,1,1,.538.538A.539.539,0,0,1,201.987,247.968Zm-1.885,0a.538.538,0,1,1,.538.538A.539.539,0,0,1,200.1,247.968Zm-2.159,0a.538.538,0,1,1,.538.538A.539.539,0,0,1,197.943,247.968Zm-1.82,0a.538.538,0,1,1,.538.538A.539.539,0,0,1,196.123,247.968Zm-1.82,0a.538.538,0,1,1,.538.538A.539.539,0,0,1,194.3,247.968Zm-1.82,0a.538.538,0,1,1,.538.538A.539.539,0,0,1,192.484,247.968Z" transform="translate(0 -39.601)" fill="url(#linear-gradient)"/>
    <g id="Group_77296" data-name="Group 77296" transform="translate(223.157 205.07)">
      <circle id="Ellipse_24796" data-name="Ellipse 24796" cx="1.535" cy="1.535" r="1.535" transform="translate(3.694)" fill="url(#linear-gradient-2)"/>
      <circle id="Ellipse_24797" data-name="Ellipse 24797" cx="0.945" cy="0.945" r="0.945" transform="translate(4.875 4.704)" fill="url(#linear-gradient-3)"/>
      <circle id="Ellipse_24798" data-name="Ellipse 24798" cx="0.945" cy="0.945" r="0.945" transform="translate(0 0)" fill="url(#linear-gradient-4)"/>
    </g>
  </g>
</svg>
