<svg xmlns="http://www.w3.org/2000/svg" xmlns:xlink="http://www.w3.org/1999/xlink" width="135.446" height="174.112" viewBox="0 0 135.446 174.112">
  <defs>
    <linearGradient id="linear-gradient" y1="0.5" x2="1" y2="0.5" gradientUnits="objectBoundingBox">
      <stop offset="0.117" stop-color="#2b388f"/>
      <stop offset="1" stop-color="#00adee"/>
    </linearGradient>
    <linearGradient id="linear-gradient-2" x1="0.5" y1="-1.667" x2="0.5" y2="12.907" gradientUnits="objectBoundingBox">
      <stop offset="0.117" stop-color="#5dc9e5"/>
      <stop offset="1" stop-color="#ca4a9a"/>
    </linearGradient>
    <linearGradient id="linear-gradient-3" x1="0.5" y1="-1.667" x2="0.5" y2="12.91" xlink:href="#linear-gradient-2"/>
  </defs>
  <g id="LIYUU-01" transform="translate(-162.37 -63.46)">
    <g id="Group_77298" data-name="Group 77298" transform="translate(162.37 63.46)">
      <path id="Path_287005" data-name="Path 287005" d="M254.594,110.425H221.259a5.283,5.283,0,0,0-5.5,5.029v37.289a26.006,26.006,0,0,0-.214,4.706v5.741a1.568,1.568,0,0,0-.656,1.258,1.78,1.78,0,0,0,3.546,0,1.533,1.533,0,0,0-.42-1.046v-8.089h2.467v3.448a1.566,1.566,0,0,0-.625,1.232,1.78,1.78,0,0,0,3.546,0,1.539,1.539,0,0,0-.452-1.078v-3.6h2.467v7.942a1.553,1.553,0,0,0-.575,1.192,1.78,1.78,0,0,0,3.546,0,1.537,1.537,0,0,0-.5-1.125v-8.008h2.467v4.945a1.588,1.588,0,0,0-.805,1.355,1.78,1.78,0,0,0,3.546,0,1.518,1.518,0,0,0-.272-.859v-5.442h2.467v8.7a1.547,1.547,0,0,0-.5,1.122,1.78,1.78,0,0,0,3.546,0,1.55,1.55,0,0,0-.581-1.2v-8.627h2.626a1.735,1.735,0,0,1-.157.13v5.661a1.572,1.572,0,0,0-.7,1.288,1.78,1.78,0,0,0,3.546,0,1.534,1.534,0,0,0-.373-.993v-3.952h-.083a24.542,24.542,0,0,0,.052-3.311V147.1a5.283,5.283,0,0,1,5.5-5.029l2.213,0a5.283,5.283,0,0,1,5.512,5.032l-.03,31.773c-.008,8.52-7.571,15.425-16.9,15.425H223.2c-9.641,0-17.458-7.138-17.466-15.945l-.052-29.863h-.079V137.844a3.424,3.424,0,0,0-3.564-3.256,2.808,2.808,0,0,1-2.922-2.669V114.47a2.42,2.42,0,0,0,2.239-2.31,2.571,2.571,0,0,0-5.121,0,2.422,2.422,0,0,0,2.239,2.31v17.449a3.424,3.424,0,0,0,3.564,3.256,2.808,2.808,0,0,1,2.922,2.669V148.49H198.89V137.844a3.424,3.424,0,0,0-3.564-3.256,2.808,2.808,0,0,1-2.922-2.669V114.47a2.42,2.42,0,0,0,2.239-2.31,2.571,2.571,0,0,0-5.121,0,2.422,2.422,0,0,0,2.239,2.31v17.449a3.424,3.424,0,0,0,3.564,3.256,2.808,2.808,0,0,1,2.922,2.669V148.49h-7.053V137.844a3.424,3.424,0,0,0-3.564-3.256,2.808,2.808,0,0,1-2.922-2.669V114.47a2.42,2.42,0,0,0,2.239-2.31,2.571,2.571,0,0,0-5.121,0,2.422,2.422,0,0,0,2.239,2.31v17.449a3.424,3.424,0,0,0,3.564,3.256,2.808,2.808,0,0,1,2.922,2.669V148.49h-5.843V137.844a3.424,3.424,0,0,0-3.564-3.256,2.808,2.808,0,0,1-2.922-2.669V114.47a2.42,2.42,0,0,0,2.239-2.31,2.571,2.571,0,0,0-5.121,0,2.422,2.422,0,0,0,2.239,2.31v17.449a3.424,3.424,0,0,0,3.564,3.256,2.808,2.808,0,0,1,2.922,2.669V148.49h-5.843V137.844a3.424,3.424,0,0,0-3.564-3.256,2.808,2.808,0,0,1-2.922-2.669V114.47a2.42,2.42,0,0,0,2.239-2.31,2.571,2.571,0,0,0-5.121,0,2.422,2.422,0,0,0,2.239,2.31v17.449a3.424,3.424,0,0,0,3.564,3.256,2.808,2.808,0,0,1,2.922,2.669V148.49h-5.843V137.844a3.424,3.424,0,0,0-3.564-3.256,2.808,2.808,0,0,1-2.922-2.669V114.47a2.42,2.42,0,0,0,2.239-2.31,2.571,2.571,0,0,0-5.121,0,2.422,2.422,0,0,0,2.239,2.31v17.449a3.424,3.424,0,0,0,3.564,3.256,2.808,2.808,0,0,1,2.922,2.669V173.4h.018v10.628c0,19.246,17.077,34.848,38.142,34.848h53.419c15.363,0,27.819-11.38,27.819-25.416V143.213C290.479,125.105,274.414,110.425,254.594,110.425Zm-32.968,50.349a.784.784,0,1,1,.855-.781A.82.82,0,0,1,221.626,160.774Zm4.986,4.452a.784.784,0,1,1,.855-.781A.821.821,0,0,1,226.612,165.227Zm4.707-2.834a.784.784,0,1,1,.855-.781A.821.821,0,0,1,231.318,162.392Zm5.246,3.525a.784.784,0,1,1,.855-.781A.821.821,0,0,1,236.565,165.917Zm-19.907-.69a.784.784,0,1,1,.855-.781A.821.821,0,0,1,216.657,165.227Zm24.636-2.053a.784.784,0,1,1,.855-.781A.821.821,0,0,1,241.293,163.173Zm-44.422-51.016a1.926,1.926,0,1,1,1.918,1.752A1.843,1.843,0,0,1,196.871,112.158Zm-6.718,0a1.926,1.926,0,1,1,1.918,1.752A1.843,1.843,0,0,1,190.153,112.158Zm-7.7,0a1.926,1.926,0,1,1,1.918,1.752A1.843,1.843,0,0,1,182.458,112.158Zm-6.486,0a1.926,1.926,0,1,1,1.918,1.752A1.843,1.843,0,0,1,175.972,112.158Zm-6.488,0a1.926,1.926,0,1,1,1.918,1.752A1.843,1.843,0,0,1,169.484,112.158Zm-6.486,0a1.926,1.926,0,1,1,1.918,1.752A1.843,1.843,0,0,1,163,112.158Z" transform="translate(-162.37 -98.534)" fill="url(#linear-gradient)"/>
      <g id="Group_77297" data-name="Group 77297" transform="translate(105.85 0)">
        <circle id="Ellipse_24799" data-name="Ellipse 24799" cx="6.717" cy="6.717" r="6.717" transform="translate(16.162)" fill="url(#linear-gradient-2)"/>
        <circle id="Ellipse_24800" data-name="Ellipse 24800" cx="4.134" cy="4.134" r="4.134" transform="translate(21.328 20.583)" fill="url(#linear-gradient-3)"/>
        <circle id="Ellipse_24801" data-name="Ellipse 24801" cx="4.134" cy="4.134" r="4.134" fill="url(#linear-gradient-3)"/>
      </g>
    </g>
    <g id="Group_77299" data-name="Group 77299" transform="translate(173.269 197.069)">
      <path id="Path_287006" data-name="Path 287006" d="M210.353,766.951v15.731h6.04v1.154H207.14v-17.3Z" transform="translate(-207.14 -766.443)" fill="#2a3b8f"/>
      <path id="Path_287007" data-name="Path 287007" d="M258.843,766.951v16.885H255.63v-17.3Z" transform="translate(-243.825 -766.443)" fill="#2a3b8f"/>
      <path id="Path_287008" data-name="Path 287008" d="M287.337,774.8l4.886-7.469h1.483l-5.572,8.484v8.62h-3.211v-7.386l-5.6-9.718h3.705Z" transform="translate(-261.748 -767.041)" fill="#2a3b8f"/>
      <path id="Path_287009" data-name="Path 287009" d="M356.6,784.112c-3.6,0-7.194-1.044-7.715-3.158a47.493,47.493,0,0,1-.438-7.963c0-2.169.027-4.311.027-6.451l3.213.411c0,2.113-.056,4.255-.056,6.4a57.173,57.173,0,0,0,.3,7.055c.275,1.731,2.5,2.581,4.667,2.581,2.2,0,4.365-.852,4.667-2.581a64.6,64.6,0,0,0,.329-8.017c0-1.95-.027-3.954-.027-5.848l3.213.411v5.107a55.95,55.95,0,0,1-.438,8.9C363.824,783.067,360.225,784.112,356.6,784.112Z" transform="translate(-321.77 -766.443)" fill="#2a3b8f"/>
      <path id="Path_287010" data-name="Path 287010" d="M463.853,783.579H460.64V768.313c1.125-1.427,3.788-2.113,6.481-2.113,3.24,0,6.451,1.015,6.975,2.965a13.242,13.242,0,0,1,.385,3.048v5.49a13.286,13.286,0,0,1-.385,2.882c-.494,1.977-3.708,2.992-6.945,2.992h-3.3Zm7.413-11.366a16.889,16.889,0,0,0-.219-2.444c-.275-1.592-2.086-2.415-3.9-2.415a10.5,10.5,0,0,0-3.294.494v14.58h3.294c1.811,0,3.625-.852,3.9-2.444a17.358,17.358,0,0,0,.219-2.527v-5.244Z" transform="translate(-412.516 -766.186)" fill="#2a3b8f"/>
      <path id="Path_287011" data-name="Path 287011" d="M531.4,766.951v16.885H528.19v-17.3Z" transform="translate(-465.964 -766.443)" fill="#2a3b8f"/>
      <path id="Path_287012" data-name="Path 287012" d="M551.852,772.359a12.94,12.94,0,0,1,.358-3.184c.521-1.95,3.761-2.965,7-2.965,2.415,0,4.859.577,6.123,1.758l-1.237.879c-.988-1.015-2.965-1.483-4.915-1.483-1.784,0-3.652.823-3.927,2.415a18.3,18.3,0,0,0-.192,2.554v5.353a14.64,14.64,0,0,0,.192,2.527c.3,1.675,2.086,2.5,3.927,2.5,2.388,0,4.036-1.207,4.036-3.625v-2.581h-4.036v-1.154h7.247v3.6a9.892,9.892,0,0,1-.3,1.894c-.521,2-3.708,3.048-6.945,3.048s-6.451-1.044-6.975-3.1a11.13,11.13,0,0,1-.358-3.1v-5.327Z" transform="translate(-486.513 -766.194)" fill="#2a3b8f"/>
      <path id="Path_287013" data-name="Path 287013" d="M625.784,766.951v16.885H622.57v-17.3Z" transform="translate(-542.051 -766.443)" fill="#2a3b8f"/>
      <path id="Path_287014" data-name="Path 287014" d="M650.26,778.5v-10.02h-4.01V767.33h11.257v1.154H653.5v15.951h-3.24V778.5Z" transform="translate(-562.44 -767.041)" fill="#2a3b8f"/>
      <path id="Path_287015" data-name="Path 287015" d="M712.586,783.536v-7.055h-7.413v7.055H701.96V768.272c2.471-3.157,12.547-2.746,13.453.852a12.526,12.526,0,0,1,.385,2.965v11.449h-3.211Zm-.219-13.811c-.275-1.592-2.086-2.415-3.9-2.415a10.5,10.5,0,0,0-3.294.494v7.469h7.413v-3.184A16.073,16.073,0,0,0,712.367,769.726Z" transform="translate(-610.636 -766.143)" fill="#2a3b8f"/>
      <path id="Path_287016" data-name="Path 287016" d="M772.723,766.951v15.731h6.04v1.154H769.51v-17.3Z" transform="translate(-661.742 -766.443)" fill="#2a3b8f"/>
    </g>
    <g id="Group_77300" data-name="Group 77300" transform="translate(173.084 220.801)">
      <path id="Path_287017" data-name="Path 287017" d="M206.38,864.8v1.091h3.8V881h3.067V865.891h3.8V864.8H206.38Z" transform="translate(-206.38 -864.515)" fill="#2a3b8f"/>
      <path id="Path_287018" data-name="Path 287018" d="M266.085,879.257c-1.69,0-3.459-.781-3.72-2.288a17.559,17.559,0,0,1-.183-2.444v-2.86h5.877v-1.117h-5.877v-5.331a10.6,10.6,0,0,1,3.51-.467h4.241V863.63h-4.37c-2.731,0-5.3.6-6.425,2.028v8.869a12.334,12.334,0,0,0,.338,3.016c.494,1.872,3.537,2.834,6.6,2.834a11.088,11.088,0,0,0,4.6-.884l-.833-.988A8.575,8.575,0,0,1,266.085,879.257Z" transform="translate(-246.296 -863.63)" fill="#2a3b8f"/>
      <path id="Path_287019" data-name="Path 287019" d="M319.183,879.352c-1.716,0-3.459-.806-3.72-2.315a13.644,13.644,0,0,1-.183-2.393v-5.1a17.569,17.569,0,0,1,.183-2.444c.26-1.509,2.028-2.288,3.72-2.288,1.845,0,3.72.443,4.655,1.4l1.171-.833c-1.2-1.117-3.51-1.665-5.8-1.665-3.07,0-6.137.962-6.631,2.809a12.338,12.338,0,0,0-.338,3.016v5.616a13.736,13.736,0,0,0,.338,2.444c.467,1.872,3.562,2.834,6.631,2.834,2.654,0,5.3-.7,6.266-2.211L324.2,877.5C323.446,878.753,321.316,879.352,319.183,879.352Z" transform="translate(-292.102 -863.698)" fill="#2a3b8f"/>
      <path id="Path_287020" data-name="Path 287020" d="M386.037,869.814v1.04h-6.344v-6.425l-3.043-.389v16.384h3.043v-8.452h6.344v8.452h3.043V864.429l-3.043-.389Z" transform="translate(-344.205 -863.94)" fill="#2a3b8f"/>
      <path id="Path_287021" data-name="Path 287021" d="M447.6,876.2q-4.331-5.967-8.608-11.963H437.64v16.2h3.043V868.471l8.608,11.963h1.351V864.05l-3.043.39Z" transform="translate(-393.626 -863.948)" fill="#2a3b8f"/>
      <path id="Path_287022" data-name="Path 287022" d="M501.786,866.633a37.285,37.285,0,0,0,0,10.768c.962,3.978,13.679,3.978,14.641,0a39.286,39.286,0,0,0,0-10.768C515.465,862.652,502.75,862.652,501.786,866.633Zm11.729,10.247c-.545,3.25-8.3,3.25-8.842,0a46.451,46.451,0,0,1,0-9.7c.545-3.277,8.3-3.277,8.842,0A43.077,43.077,0,0,1,513.515,876.879Z" transform="translate(-445.534 -863.643)" fill="#2a3b8f"/>
      <path id="Path_287023" data-name="Path 287023" d="M577.713,864.44l-3.043-.39v16.384h8.764v-1.093h-5.721Z" transform="translate(-503.974 -863.948)" fill="#2a3b8f"/>
      <path id="Path_287024" data-name="Path 287024" d="M617.786,866.633a37.289,37.289,0,0,0,0,10.768c.962,3.978,13.679,3.978,14.641,0a39.286,39.286,0,0,0,0-10.768C631.465,862.652,618.747,862.652,617.786,866.633Zm11.729,10.247c-.545,3.25-8.3,3.25-8.842,0a46.451,46.451,0,0,1,0-9.7c.545-3.277,8.3-3.277,8.842,0A43.358,43.358,0,0,1,629.515,876.879Z" transform="translate(-539.569 -863.643)" fill="#2a3b8f"/>
      <path id="Path_287025" data-name="Path 287025" d="M697.6,873.482h3.822v2.444c0,2.288-1.56,3.432-3.822,3.432-1.743,0-3.432-.781-3.72-2.366a13.853,13.853,0,0,1-.183-2.393v-5.071a17.148,17.148,0,0,1,.183-2.417c.261-1.509,2.028-2.288,3.72-2.288,1.845,0,3.72.443,4.655,1.4l1.171-.833c-1.2-1.117-3.51-1.665-5.8-1.665-3.07,0-6.137.962-6.631,2.809a12.334,12.334,0,0,0-.338,3.016V874.6a10.463,10.463,0,0,0,.338,2.938c.494,1.95,3.537,2.938,6.6,2.938s6.086-.988,6.58-2.887a9.57,9.57,0,0,0,.287-1.794v-3.406H697.6v1.093Z" transform="translate(-601.899 -863.706)" fill="#2a3b8f"/>
      <path id="Path_287026" data-name="Path 287026" d="M764.531,864.8l-4.628,7.075L755.82,864.8h-3.51l5.3,9.207v7h3.043v-8.165l5.28-8.036h-1.407Z" transform="translate(-648.544 -864.515)" fill="#2a3b8f"/>
    </g>
  </g>
</svg>
